<?xml version="1.0" encoding="iso-8859-1"?>
<!-- Generator: Adobe Illustrator 19.0.0, SVG Export Plug-In . SVG Version: 6.00 Build 0)  -->
<svg version="1.1" id="Capa_1" xmlns="http://www.w3.org/2000/svg" xmlns:xlink="http://www.w3.org/1999/xlink" x="0px" y="0px"
	 viewBox="0 0 512 512" style="enable-background:new 0 0 512 512;" xml:space="preserve">
<polygon style="fill:#44C973;" points="7.23,395.683 43.708,359.206 78.771,324.154 113.822,289.093 289.093,113.822 324.154,78.77 
	395.683,7.23 504.77,116.316 116.317,504.77 "/>
<path d="M171.516,398.842c3.937-3.937,3.937-10.32,0-14.258c-3.938-3.937-10.319-3.937-14.258,0l-52.322,52.322
	c-3.937,3.937-3.937,10.32,0,14.258c1.969,1.969,4.549,2.953,7.128,2.953s5.16-0.984,7.128-2.953L171.516,398.842z"/>
<path d="M183.07,383.11c12.973,0,12.995-20.162,0-20.162C170.096,362.948,170.075,383.11,183.07,383.11z"/>
<path d="M109.188,509.047c1.969,1.969,4.549,2.953,7.128,2.953s5.16-0.984,7.128-2.953l385.602-385.602
	c1.89-1.89,2.953-4.455,2.953-7.128s-1.063-5.238-2.953-7.128L402.812,2.953C400.92,1.063,398.357,0,395.683,0
	c-2.673,0-5.237,1.063-7.128,2.953l-70.108,70.108l-0.001,0.001c0,0,0,0.001-0.001,0.001l-70.106,70.106
	c0,0-0.001,0.001-0.002,0.002c0,0-0.001,0.001-0.002,0.002L38.006,353.502c0,0,0,0.001-0.001,0.001L2.952,388.555
	C1.063,390.446,0,393.01,0,395.683c0,2.674,1.063,5.238,2.953,7.128L109.188,509.047z M45.133,374.889l17.661,17.661
	c1.969,1.969,4.549,2.953,7.128,2.953s5.16-0.984,7.128-2.953c3.937-3.937,3.937-10.32,0-14.258l-17.66-17.661l20.8-20.8
	l32.213,32.213c1.969,1.969,4.549,2.953,7.128,2.953s5.16-0.985,7.128-2.953c3.937-3.937,3.937-10.32,0-14.257l-32.213-32.213
	l20.799-20.799l17.661,17.661c1.969,1.969,4.549,2.953,7.128,2.953s5.16-0.984,7.128-2.953c3.937-3.937,3.937-10.32,0-14.258
	l-17.661-17.661l20.795-20.795l32.217,32.218c1.969,1.969,4.549,2.953,7.128,2.953s5.16-0.985,7.128-2.953
	c3.937-3.937,3.937-10.32,0-14.257l-32.218-32.218l20.796-20.796l17.661,17.654c1.968,1.968,4.548,2.951,7.126,2.951
	c2.581,0,5.162-0.985,7.129-2.954c3.936-3.938,3.935-10.321-0.003-14.258l-17.658-17.65l20.803-20.803l32.218,32.218
	c1.969,1.969,4.549,2.953,7.128,2.953s5.16-0.984,7.128-2.953c3.937-3.937,3.937-10.32,0-14.258l-32.218-32.218l20.794-20.794
	l17.661,17.661c1.969,1.969,4.549,2.953,7.128,2.953c2.58,0,5.16-0.985,7.128-2.953c3.937-3.937,3.937-10.32,0-14.257L269.718,150.3
	l20.795-20.795l32.217,32.218c1.969,1.969,4.549,2.953,7.128,2.953c2.58,0,5.16-0.985,7.128-2.953c3.937-3.937,3.937-10.32,0-14.257
	l-32.218-32.219l20.799-20.799l17.656,17.656c1.969,1.969,4.549,2.953,7.128,2.953c2.58,0,5.16-0.984,7.128-2.953
	c3.937-3.937,3.937-10.32,0-14.258L339.825,80.19l20.8-20.8l32.218,32.218c1.969,1.969,4.549,2.953,7.128,2.953
	s5.16-0.985,7.128-2.953c3.937-3.937,3.937-10.32,0-14.257l-32.211-32.218l20.794-20.794l91.978,91.978L116.317,487.661
	l-91.978-91.978L45.133,374.889z"/>
<g>
</g>
<g>
</g>
<g>
</g>
<g>
</g>
<g>
</g>
<g>
</g>
<g>
</g>
<g>
</g>
<g>
</g>
<g>
</g>
<g>
</g>
<g>
</g>
<g>
</g>
<g>
</g>
<g>
</g>
</svg>
